<svg width="256" height="19" viewBox="0 0 256 19" fill="none" xmlns="http://www.w3.org/2000/svg">
<path d="M4.56534 13.0227C3.87784 13.0227 3.25 12.8551 2.68182 12.5199C2.11364 12.179 1.65909 11.7244 1.31818 11.1562C0.982955 10.5881 0.815341 9.96023 0.815341 9.27273C0.815341 8.57955 0.982955 7.9517 1.31818 7.3892C1.65909 6.82102 2.11364 6.36932 2.68182 6.03409C3.25 5.69318 3.87784 5.52273 4.56534 5.52273C5.25852 5.52273 5.88636 5.69318 6.44886 6.03409C7.01705 6.36932 7.46875 6.82102 7.80398 7.3892C8.14489 7.9517 8.31534 8.57955 8.31534 9.27273C8.31534 9.96023 8.14489 10.5881 7.80398 11.1562C7.46875 11.7244 7.01705 12.179 6.44886 12.5199C5.88636 12.8551 5.25852 13.0227 4.56534 13.0227ZM17.2045 0.545454H21.7557L26.5625 12.2727H26.767L31.5739 0.545454H36.125V18H32.5455V6.6392H32.4006L27.8835 17.9148H25.446L20.929 6.59659H20.7841V18H17.2045V0.545454ZM42.174 18H38.2195L44.245 0.545454H49.0007L55.0178 18H51.0632L46.6911 4.53409H46.5547L42.174 18ZM41.9268 11.1392H51.2678V14.0199H41.9268V11.1392ZM57.1186 18V0.545454H64.005C65.3232 0.545454 66.4482 0.78125 67.38 1.25284C68.3175 1.71875 69.0305 2.38068 69.5192 3.23864C70.0135 4.09091 70.2607 5.09375 70.2607 6.24716C70.2607 7.40625 70.0107 8.40341 69.5107 9.23864C69.0107 10.0682 68.2862 10.7045 67.3374 11.1477C66.3942 11.5909 65.2521 11.8125 63.9112 11.8125H59.3004V8.84659H63.3146C64.0192 8.84659 64.6044 8.75 65.0703 8.55682C65.5362 8.36364 65.8828 8.07386 66.1101 7.6875C66.343 7.30114 66.4595 6.82102 66.4595 6.24716C66.4595 5.66761 66.343 5.17898 66.1101 4.78125C65.8828 4.38352 65.5334 4.08239 65.0618 3.87784C64.5959 3.66761 64.0078 3.5625 63.2976 3.5625H60.8089V18H57.1186ZM66.5447 10.0568L70.8828 18H66.8089L62.5646 10.0568H66.5447ZM72.8686 18V0.545454H76.5589V8.24148H76.7891L83.0703 0.545454H87.4936L81.0163 8.3608L87.5703 18H83.1555L78.3743 10.8239L76.5589 13.0398V18H72.8686ZM94.7827 18V15.8097L103.493 3.58807H94.7656V0.545454H108.129V2.73579L99.4105 14.9574H108.146V18H94.7827ZM121.759 0.545454H125.45V11.8807C125.45 13.1534 125.146 14.267 124.538 15.2216C123.935 16.1761 123.092 16.9205 122.006 17.4545C120.921 17.983 119.657 18.2472 118.214 18.2472C116.765 18.2472 115.498 17.983 114.413 17.4545C113.327 16.9205 112.484 16.1761 111.881 15.2216C111.279 14.267 110.978 13.1534 110.978 11.8807V0.545454H114.668V11.5653C114.668 12.2301 114.813 12.821 115.103 13.3381C115.398 13.8551 115.813 14.2614 116.347 14.5568C116.881 14.8523 117.504 15 118.214 15C118.93 15 119.552 14.8523 120.08 14.5568C120.614 14.2614 121.026 13.8551 121.316 13.3381C121.612 12.821 121.759 12.2301 121.759 11.5653V0.545454ZM143.886 6.65625H140.153C140.085 6.1733 139.946 5.74432 139.736 5.36932C139.526 4.98864 139.256 4.66477 138.926 4.39773C138.597 4.13068 138.216 3.92614 137.784 3.78409C137.358 3.64205 136.895 3.57102 136.395 3.57102C135.491 3.57102 134.705 3.79545 134.034 4.24432C133.364 4.6875 132.844 5.33523 132.474 6.1875C132.105 7.03409 131.92 8.0625 131.92 9.27273C131.92 10.517 132.105 11.5625 132.474 12.4091C132.849 13.2557 133.372 13.8949 134.043 14.3267C134.713 14.7585 135.489 14.9744 136.369 14.9744C136.864 14.9744 137.321 14.9091 137.741 14.7784C138.168 14.6477 138.545 14.4574 138.875 14.2074C139.205 13.9517 139.477 13.642 139.693 13.2784C139.915 12.9148 140.068 12.5 140.153 12.0341L143.886 12.0511C143.79 12.8523 143.548 13.625 143.162 14.3693C142.781 15.108 142.267 15.7699 141.619 16.3551C140.977 16.9347 140.21 17.3949 139.318 17.7358C138.432 18.071 137.429 18.2386 136.31 18.2386C134.753 18.2386 133.361 17.8864 132.134 17.1818C130.912 16.4773 129.946 15.4574 129.236 14.1222C128.531 12.7869 128.179 11.1705 128.179 9.27273C128.179 7.36932 128.537 5.75 129.253 4.41477C129.969 3.07955 130.94 2.0625 132.168 1.36364C133.395 0.659091 134.776 0.306818 136.31 0.306818C137.321 0.306818 138.259 0.448863 139.122 0.732954C139.991 1.01705 140.761 1.43182 141.432 1.97727C142.102 2.51704 142.648 3.17898 143.068 3.96307C143.494 4.74716 143.767 5.64489 143.886 6.65625ZM146.533 18V0.545454H150.223V8.24148H150.453L156.734 0.545454H161.158L154.68 8.3608L161.234 18H156.82L152.038 10.8239L150.223 13.0398V18H146.533ZM163.08 18V0.545454H174.841V3.58807H166.77V7.74716H174.236V10.7898H166.77V14.9574H174.875V18H163.08ZM177.775 18V0.545454H184.661C185.979 0.545454 187.104 0.78125 188.036 1.25284C188.974 1.71875 189.687 2.38068 190.175 3.23864C190.67 4.09091 190.917 5.09375 190.917 6.24716C190.917 7.40625 190.667 8.40341 190.167 9.23864C189.667 10.0682 188.942 10.7045 187.994 11.1477C187.05 11.5909 185.908 11.8125 184.567 11.8125H179.957V8.84659H183.971C184.675 8.84659 185.261 8.75 185.727 8.55682C186.192 8.36364 186.539 8.07386 186.766 7.6875C186.999 7.30114 187.116 6.82102 187.116 6.24716C187.116 5.66761 186.999 5.17898 186.766 4.78125C186.539 4.38352 186.19 4.08239 185.718 3.87784C185.252 3.66761 184.664 3.5625 183.954 3.5625H181.465V18H177.775ZM187.201 10.0568L191.539 18H187.465L183.221 10.0568H187.201ZM193.525 18V0.545454H200.513C201.798 0.545454 202.869 0.735795 203.727 1.11648C204.585 1.49716 205.229 2.02557 205.661 2.7017C206.093 3.37216 206.309 4.14489 206.309 5.01989C206.309 5.7017 206.173 6.30114 205.9 6.81818C205.627 7.32955 205.252 7.75 204.775 8.07955C204.303 8.40341 203.763 8.63352 203.156 8.76989V8.94034C203.82 8.96875 204.442 9.15625 205.022 9.50284C205.607 9.84943 206.082 10.3352 206.445 10.9602C206.809 11.5795 206.991 12.3182 206.991 13.1761C206.991 14.1023 206.761 14.929 206.3 15.6562C205.846 16.3778 205.173 16.9489 204.281 17.3693C203.388 17.7898 202.289 18 200.982 18H193.525ZM197.215 14.983H200.224C201.252 14.983 202.002 14.7869 202.474 14.3949C202.945 13.9972 203.181 13.4687 203.181 12.8097C203.181 12.3267 203.065 11.9006 202.832 11.5312C202.599 11.1619 202.266 10.8722 201.835 10.6619C201.408 10.4517 200.9 10.3466 200.309 10.3466H197.215V14.983ZM197.215 7.84943H199.951C200.457 7.84943 200.906 7.76136 201.298 7.58523C201.695 7.40341 202.008 7.14773 202.235 6.81818C202.468 6.48864 202.585 6.09375 202.585 5.63352C202.585 5.00284 202.36 4.49432 201.911 4.10795C201.468 3.72159 200.837 3.52841 200.019 3.52841H197.215V7.84943ZM209.392 18V0.545454H221.153V3.58807H213.082V7.74716H220.548V10.7898H213.082V14.9574H221.188V18H209.392ZM224.087 18V0.545454H230.974C232.292 0.545454 233.417 0.78125 234.349 1.25284C235.286 1.71875 235.999 2.38068 236.488 3.23864C236.982 4.09091 237.229 5.09375 237.229 6.24716C237.229 7.40625 236.979 8.40341 236.479 9.23864C235.979 10.0682 235.255 10.7045 234.306 11.1477C233.363 11.5909 232.221 11.8125 230.88 11.8125H226.269V8.84659H230.283C230.988 8.84659 231.573 8.75 232.039 8.55682C232.505 8.36364 232.852 8.07386 233.079 7.6875C233.312 7.30114 233.428 6.82102 233.428 6.24716C233.428 5.66761 233.312 5.17898 233.079 4.78125C232.852 4.38352 232.502 4.08239 232.031 3.87784C231.565 3.66761 230.977 3.5625 230.266 3.5625H227.778V18H224.087ZM233.513 10.0568L237.852 18H233.778L229.533 10.0568H233.513ZM251.411 6.1875C251.292 5.77273 251.124 5.40625 250.908 5.08807C250.692 4.7642 250.428 4.49148 250.116 4.26989C249.809 4.04261 249.457 3.86932 249.059 3.75C248.667 3.63068 248.232 3.57102 247.755 3.57102C246.863 3.57102 246.079 3.79261 245.403 4.23579C244.732 4.67898 244.21 5.32386 243.835 6.17045C243.46 7.01136 243.272 8.03977 243.272 9.25568C243.272 10.4716 243.457 11.5057 243.826 12.358C244.195 13.2102 244.718 13.8608 245.394 14.3097C246.07 14.7528 246.869 14.9744 247.789 14.9744C248.624 14.9744 249.337 14.8267 249.928 14.5312C250.525 14.2301 250.979 13.8068 251.292 13.2614C251.61 12.7159 251.769 12.071 251.769 11.3267L252.519 11.4375H248.019V8.65909H255.323V10.858C255.323 12.392 254.999 13.7102 254.352 14.8125C253.704 15.9091 252.812 16.7557 251.675 17.3523C250.539 17.9432 249.238 18.2386 247.772 18.2386C246.136 18.2386 244.698 17.8778 243.46 17.1562C242.221 16.429 241.255 15.3977 240.562 14.0625C239.874 12.7216 239.531 11.1307 239.531 9.28977C239.531 7.875 239.735 6.61364 240.144 5.50568C240.559 4.39205 241.138 3.44886 241.883 2.67614C242.627 1.90341 243.494 1.31534 244.482 0.911931C245.471 0.508522 246.542 0.306818 247.695 0.306818C248.684 0.306818 249.604 0.451704 250.457 0.741477C251.309 1.02557 252.065 1.42898 252.724 1.9517C253.388 2.47443 253.931 3.09659 254.352 3.81818C254.772 4.53409 255.042 5.32386 255.161 6.1875H251.411Z" fill="white"/>
</svg>
